# xmcd
#
# Track frame offsets: 
#        150
#        25558
#        46272
#        69172
#        92210
#        115108
#        137689
#        162404
#        183559
#
# Disc length: 2855 seconds
#
# Revision: 1
# Processed by: cddbd v1.5.2PL0 Copyright (c) Steve Scherf et al.
# Submitted via: ExactAudioCopy v0.99pb5
#
DISCID=6e0b2509
DTITLE=Juicy - Spread The Love
DYEAR=1987
DGENRE=R&B
TTITLE0=All Work, No Play
TTITLE1=Show And Tell
TTITLE2=After Loving You
TTITLE3=Make You Mine
TTITLE4=Midnight Love
TTITLE5=Serious
TTITLE6=Spread The Love
TTITLE7=Private Party
TTITLE8=Sugar Free  - Radio Mix
EXTD=
EXTT0=
EXTT1=
EXTT2=
EXTT3=
EXTT4=
EXTT5=
EXTT6=
EXTT7=
EXTT8=
PLAYORDER=
